<svg xmlns="http://www.w3.org/2000/svg" xmlns:xlink="http://www.w3.org/1999/xlink" viewBox="0 0 874.91 374.46"><defs><style>.cls-1{fill:url(#linear-gradient);}.cls-2{fill:url(#linear-gradient-2);}</style><linearGradient id="linear-gradient" x1="979.02" y1="174.48" x2="437.45" y2="174.48" gradientUnits="userSpaceOnUse"><stop offset="0" stop-color="#6156f9"/><stop offset="1" stop-color="#1a129f"/></linearGradient><linearGradient id="linear-gradient-2" x1="335.12" y1="113.55" x2="655.89" y2="612.42" xlink:href="#linear-gradient"/></defs><g id="Layer_2" data-name="Layer 2"><g id="Layer_2-2" data-name="Layer 2"><g id="Layer_2-3" data-name="Layer 2"><g id="Layer_1-2" data-name="Layer 1-2"><path class="cls-1" d="M874.91,117.21V349H0V163.73C105.87,46.07,191.18-66.32,363.25,47.05a539.08,539.08,0,0,0,77.41,42.72c92.2,41.06,173.06,42.5,244.91,36.41C756.89,120.13,819.28,106.67,874.91,117.21Z"/></g></g></g><g id="Layer_1-2-2" data-name="Layer 1"><path class="cls-2" d="M874.91,171V374.46H0V184.89c22.6,4.42,48.49,11.53,78.13,21.79C367,306.6,428.33-59.11,629.75,97.23,721.72,168.61,805,170.09,874.91,171Z"/></g></g></svg>